<svg height="512pt" viewBox="0 -16 512 512" width="512pt" xmlns="http://www.w3.org/2000/svg" xmlns:xlink="http://www.w3.org/1999/xlink"><linearGradient id="a" gradientUnits="userSpaceOnUse" x1="256" x2="256" y1="0" y2="480"><stop offset="0" stop-color="#2af598"/><stop offset="1" stop-color="#009efd"/></linearGradient><path d="m452 0h-392c-33.085938 0-60 26.914062-60 60v360c0 33.085938 26.914062 60 60 60h392c33.085938 0 60-26.914062 60-60v-360c0-33.085938-26.914062-60-60-60zm-392 40h392c11.027344 0 20 8.972656 20 20v60h-432v-60c0-11.027344 8.972656-20 20-20zm392 400h-392c-11.027344 0-20-8.972656-20-20v-260h432v260c0 11.027344-8.972656 20-20 20zm-382-360c0-11.046875 8.953125-20 20-20s20 8.953125 20 20-8.953125 20-20 20-20-8.953125-20-20zm70 0c0-11.046875 8.953125-20 20-20s20 8.953125 20 20-8.953125 20-20 20-20-8.953125-20-20zm162.5 123c-19.144531 0-35.8125 6.113281-48.113281 17.265625-10.144531-9.171875-25.230469-17.265625-46.886719-17.265625-18.441406 0-35.421875 6.902344-47.8125 19.433594-12.695312 12.839844-19.6875 30.933594-19.6875 50.9375 0 23.9375 14.3125 49.421875 42.539062 75.738281 24.242188 22.605469 50.800782 38.460937 55.875 41.40625 2.046876 1.191406 6.605469 3.8125 6.605469 3.8125l9.984375 5.753906 9.984375-5.757812s4.546875-2.621094 6.59375-3.808594c5.078125-2.949219 31.636719-18.804687 55.875-41.40625 28.230469-26.316406 42.542969-51.796875 42.542969-75.738281 0-20.003906-6.992188-38.097656-19.6875-50.9375-12.390625-12.53125-29.371094-19.433594-47.8125-19.433594zm-47.503906 150.847656c-32.277344-19.535156-74.996094-55.882812-74.996094-80.476562 0-17.855469 10.109375-29.59375 25.902344-30.332032 30.660156 3.945313 49.433594 44.496094 49.433594 44.496094s16.636718-40.675781 47.960937-44.515625c16.25.375 26.703125 12.199219 26.703125 30.351563 0 24.589844-42.71875 60.941406-75.003906 80.476562zm0 0" fill="url(#a)"/></svg>